<?xml version="1.0" encoding="UTF-8"?>
<svg width="463px" height="96px" viewBox="0 0 463 96" version="1.1" xmlns="http://www.w3.org/2000/svg" xmlns:xlink="http://www.w3.org/1999/xlink">
    <!-- Generator: Sketch 59.1 (86144) - https://sketch.com -->
    <title>Group 2</title>
    <desc>Created with Sketch.</desc>
    <g id="Page-1" stroke="none" stroke-width="1" fill="none" fill-rule="evenodd">
        <g id="Artboard" transform="translate(-57.000000, -31.000000)">
            <g id="Group-2" transform="translate(57.000000, 31.000000)">
                <path d="M119,74.1111111 L132.009609,74.1111111 L132.009609,15 L119,15 L119,74.1111111 Z M158.570894,75.2088889 C169.454751,75.2088889 177.702673,69.8888889 178.978125,61.8666667 L166.223606,61.8666667 C165.118214,64.4 162.56731,65.4977778 158.570894,65.4977778 C152.788846,65.4977778 149.217581,62.6266667 148.96249,57.3066667 L179.233215,57.3066667 L179.356001,56.15236 C179.516414,54.5381451 179.573335,53.3761616 179.573335,51.6488889 C179.573335,40.1644444 170.900263,32.3111111 158.145744,32.3111111 C144.796014,32.3111111 136.037911,40.4177778 136.037911,53.76 C136.037911,67.3555556 144.625954,75.2088889 158.570894,75.2088889 Z M148.96249,49.2844444 C149.04752,44.3022222 152.448725,41.0088889 158.060714,41.0088889 C163.587672,41.0088889 166.648756,43.88 166.733786,49.2844444 L148.96249,49.2844444 Z M199.927422,75.2088889 C205.62444,75.2088889 210.726247,72.4222222 212.937031,68.3688889 L212.937031,74.1111111 L225.86161,74.1111111 L225.86161,33.4088889 L212.937031,33.4088889 L212.937031,39.2355556 C210.726247,35.0977778 206.049591,32.3111111 200.097482,32.3111111 C188.193264,32.3111111 180.625583,41.6 180.625583,53.76 C180.625583,66.0044444 187.683084,75.2088889 199.927422,75.2088889 Z M203.668747,64.4844444 C197.631608,64.4844444 193.890283,59.9244444 193.890283,53.76 C193.890283,47.5955556 197.631608,43.12 203.668747,43.12 C210.131037,43.12 213.447211,47.9333333 213.447211,53.76 C213.447211,59.6711111 210.131037,64.4844444 203.668747,64.4844444 Z M259.565426,32.3111111 C253.443257,32.3111111 248.341449,35.3511111 246.130666,39.2355556 L246.130666,33.4088889 L233.206087,33.4088889 L233.206087,91 L246.130666,91 L246.130666,68.3688889 C248.256419,72.1688889 253.188166,75.2088889 259.225305,75.2088889 C270.534312,75.2088889 278.442113,66.5111111 278.442113,53.76 C278.442113,40.9244444 270.789402,32.3111111 259.565426,32.3111111 Z M255.48398,64.4844444 C249.701931,64.4844444 245.620485,60.1777778 245.620485,53.76 C245.620485,47.4266667 249.616901,43.12 255.48398,43.12 C261.180998,43.12 265.177414,47.5111111 265.177414,53.76 C265.177414,60.0933333 261.180998,64.4844444 255.48398,64.4844444 Z M301.517164,75.2088889 C313.761502,75.2088889 321.754333,68.8755556 322.774695,58.9955556 L309.765086,58.9955556 C308.829754,62.5422222 306.363881,64.2311111 301.602194,64.2311111 C295.990205,64.2311111 292.589,60.5155556 292.589,53.76 C292.589,47.0044444 295.990205,43.2888889 301.602194,43.2888889 C306.363881,43.2888889 308.829754,45.0622222 309.765086,48.8622222 L322.774695,48.8622222 C321.754333,38.7288889 313.761502,32.3111111 301.517164,32.3111111 C287.997374,32.3111111 279.579391,40.9244444 279.579391,53.76 C279.579391,66.5955556 287.997374,75.2088889 301.517164,75.2088889 Z M346.359926,75.2088889 C360.389896,75.2088889 369.062969,66.1733333 369.062969,53.76 C369.062969,41.3466667 360.389896,32.3111111 346.359926,32.3111111 C332.244925,32.3111111 323.571852,41.3466667 323.571852,53.76 C323.571852,66.1733333 332.244925,75.2088889 346.359926,75.2088889 Z M346.359926,64.3155556 C340.152727,64.3155556 336.581461,59.9244444 336.581461,53.76 C336.581461,47.5955556 340.152727,43.2044444 346.359926,43.2044444 C352.482095,43.2044444 356.13839,47.5955556 356.13839,53.76 C356.13839,59.9244444 352.482095,64.3155556 346.359926,64.3155556 Z M402.426665,15 L402.426665,39.2355556 C400.215881,35.0977778 395.539224,32.3111111 389.587116,32.3111111 C377.682898,32.3111111 370.115217,41.6 370.115217,53.76 C370.115217,66.0044444 377.172717,75.2088889 389.417055,75.2088889 C395.114074,75.2088889 400.215881,72.4222222 402.426665,68.3688889 L402.426665,74.1111111 L415.351244,74.1111111 L415.351244,15 L402.426665,15 Z M393.158381,64.4844444 C387.121242,64.4844444 383.379917,59.9244444 383.379917,53.76 C383.379917,47.5955556 387.121242,43.12 393.158381,43.12 C399.62067,43.12 402.936845,47.9333333 402.936845,53.76 C402.936845,59.6711111 399.62067,64.4844444 393.158381,64.4844444 Z M441.997559,75.2088889 C452.881415,75.2088889 461.129337,69.8888889 462.404789,61.8666667 L449.65027,61.8666667 C448.544879,64.4 445.993975,65.4977778 441.997559,65.4977778 C436.215511,65.4977778 432.644245,62.6266667 432.389155,57.3066667 L462.659879,57.3066667 L462.782665,56.15236 C462.943079,54.5381451 463,53.3761616 463,51.6488889 C463,40.1644444 454.326927,32.3111111 441.572408,32.3111111 C428.222679,32.3111111 419.464576,40.4177778 419.464576,53.76 C419.464576,67.3555556 428.052619,75.2088889 441.997559,75.2088889 Z M432.389155,49.2844444 C432.474185,44.3022222 435.87539,41.0088889 441.487378,41.0088889 C447.014336,41.0088889 450.075421,43.88 450.160451,49.2844444 L432.389155,49.2844444 Z" id="leapcode" fill="#01132C" fill-rule="nonzero"></path>
                <g id="Group">
                    <circle id="Oval" fill="#01132C" cx="48" cy="48" r="48"></circle>
                    <g id="Group-3" transform="translate(19.000000, 19.000000)" fill="#17D78F">
                        <path d="M21,0 C23.0618892,-3.78762904e-16 24.7333807,1.67149147 24.7333807,3.73338068 C24.7333807,4.0924752 24.6815729,4.44969142 24.5795584,4.79399056 L11.4204416,49.2060094 C10.5779528,52.0494094 7.96558782,54 5,54 C2.93811078,54 1.26661932,52.3285085 1.26661932,50.2666193 C1.26661932,49.9075248 1.31842709,49.5503086 1.42044165,49.2060094 L14.5795584,4.79399056 C15.4220472,1.95059056 18.0344122,5.44769644e-16 21,0 Z" id="Rectangle"></path>
                        <path d="M51.8402602,18.9262223 L65.2172996,45.0432993 C65.9880234,46.5480458 65.3929805,48.3926789 63.888234,49.1634027 C63.4563164,49.3846288 62.9779921,49.5 62.492715,49.5 L61.4310996,49.5 C59.0363573,49.5 56.8709429,48.0759983 55.9221307,45.8772382 L48.5045466,28.6878624 C48.0669092,27.6736892 46.8899841,27.2063147 45.8758109,27.6439521 C45.4295864,27.8365076 45.0687425,28.1849551 44.8607119,28.6241786 L36.5986118,46.0682896 C35.6060646,48.1638953 33.4948506,49.5 31.1760766,49.5 L30.2366209,49.5 C28.637363,49.5 27.3409084,48.2035453 27.3409084,46.6042875 C27.3409084,46.1452416 27.4500432,45.6927727 27.6593112,45.284202 L41.1597398,18.9262223 C42.6703796,15.976878 46.285911,14.8105776 49.2352552,16.3212173 C50.3552822,16.8948897 51.2665878,17.8061953 51.8402602,18.9262223 Z" id="Triangle" transform="translate(46.500000, 29.000000) rotate(90.000000) translate(-46.500000, -29.000000) "></path>
                    </g>
                </g>
            </g>
        </g>
    </g>
</svg>